<svg xmlns="http://www.w3.org/2000/svg" viewBox="0 0 960 600" role="img" aria-labelledby="title desc">
  <title id="title">SOUF site preview placeholder</title>
  <desc id="desc">A placeholder website screenshot for the SOUF project card.</desc>
  <rect width="960" height="600" fill="#f8fafc"/>
  <rect x="0" y="0" width="960" height="62" fill="#0f172a"/>
  <circle cx="34" cy="31" r="7" fill="#ef4444"/>
  <circle cx="58" cy="31" r="7" fill="#f59e0b"/>
  <circle cx="82" cy="31" r="7" fill="#22c55e"/>
  <rect x="124" y="22" width="230" height="18" rx="9" fill="#1e293b"/>
  <rect x="56" y="116" width="360" height="34" rx="8" fill="#0f172a"/>
  <rect x="56" y="170" width="286" height="16" rx="8" fill="#475569"/>
  <rect x="56" y="204" width="190" height="42" rx="21" fill="#2563eb"/>
  <rect x="506" y="112" width="338" height="214" rx="18" fill="#dbeafe" stroke="#bfdbfe"/>
  <rect x="542" y="150" width="142" height="16" rx="8" fill="#2563eb"/>
  <rect x="542" y="188" width="238" height="12" rx="6" fill="#64748b"/>
  <rect x="542" y="218" width="194" height="12" rx="6" fill="#94a3b8"/>
  <rect x="56" y="366" width="244" height="118" rx="16" fill="#ffffff" stroke="#e2e8f0"/>
  <rect x="334" y="366" width="244" height="118" rx="16" fill="#ffffff" stroke="#e2e8f0"/>
  <rect x="612" y="366" width="244" height="118" rx="16" fill="#ffffff" stroke="#e2e8f0"/>
  <rect x="86" y="398" width="132" height="14" rx="7" fill="#0f172a"/>
  <rect x="86" y="434" width="172" height="10" rx="5" fill="#94a3b8"/>
  <rect x="364" y="398" width="132" height="14" rx="7" fill="#0f172a"/>
  <rect x="364" y="434" width="172" height="10" rx="5" fill="#94a3b8"/>
  <rect x="642" y="398" width="132" height="14" rx="7" fill="#0f172a"/>
  <rect x="642" y="434" width="172" height="10" rx="5" fill="#94a3b8"/>
</svg>
