<svg xmlns="http://www.w3.org/2000/svg" viewBox="0 0 960 600" role="img" aria-labelledby="title desc">
  <title id="title">F'LINK site preview placeholder</title>
  <desc id="desc">A placeholder website screenshot for the F'LINK project card.</desc>
  <rect width="960" height="600" fill="#f8fafc"/>
  <rect x="0" y="0" width="960" height="62" fill="#0f172a"/>
  <circle cx="34" cy="31" r="7" fill="#ef4444"/>
  <circle cx="58" cy="31" r="7" fill="#f59e0b"/>
  <circle cx="82" cy="31" r="7" fill="#22c55e"/>
  <rect x="118" y="22" width="206" height="18" rx="9" fill="#1e293b"/>
  <rect x="58" y="110" width="254" height="34" rx="8" fill="#0f172a"/>
  <rect x="58" y="164" width="378" height="16" rx="8" fill="#475569"/>
  <rect x="58" y="198" width="318" height="16" rx="8" fill="#94a3b8"/>
  <rect x="58" y="274" width="248" height="176" rx="18" fill="#ffffff" stroke="#e2e8f0"/>
  <rect x="342" y="274" width="248" height="176" rx="18" fill="#ffffff" stroke="#e2e8f0"/>
  <rect x="626" y="274" width="248" height="176" rx="18" fill="#ffffff" stroke="#e2e8f0"/>
  <rect x="86" y="310" width="126" height="14" rx="7" fill="#2563eb"/>
  <rect x="86" y="354" width="176" height="10" rx="5" fill="#64748b"/>
  <rect x="86" y="382" width="132" height="10" rx="5" fill="#cbd5e1"/>
  <rect x="370" y="310" width="126" height="14" rx="7" fill="#2563eb"/>
  <rect x="370" y="354" width="176" height="10" rx="5" fill="#64748b"/>
  <rect x="370" y="382" width="132" height="10" rx="5" fill="#cbd5e1"/>
  <rect x="654" y="310" width="126" height="14" rx="7" fill="#2563eb"/>
  <rect x="654" y="354" width="176" height="10" rx="5" fill="#64748b"/>
  <rect x="654" y="382" width="132" height="10" rx="5" fill="#cbd5e1"/>
  <rect x="58" y="500" width="816" height="18" rx="9" fill="#dbeafe"/>
</svg>
