<svg xmlns="http://www.w3.org/2000/svg" viewBox="0 0 960 600" role="img" aria-labelledby="title desc">
  <title id="title">TAVE Website preview placeholder</title>
  <desc id="desc">A placeholder website screenshot for the TAVE Website project card.</desc>
  <rect width="960" height="600" fill="#f8fafc"/>
  <rect x="0" y="0" width="960" height="62" fill="#0f172a"/>
  <circle cx="34" cy="31" r="7" fill="#ef4444"/>
  <circle cx="58" cy="31" r="7" fill="#f59e0b"/>
  <circle cx="82" cy="31" r="7" fill="#22c55e"/>
  <rect x="122" y="22" width="220" height="18" rx="9" fill="#1e293b"/>
  <rect x="58" y="106" width="846" height="212" rx="22" fill="#dbeafe" stroke="#bfdbfe"/>
  <rect x="96" y="148" width="308" height="32" rx="8" fill="#0f172a"/>
  <rect x="96" y="204" width="390" height="16" rx="8" fill="#475569"/>
  <rect x="96" y="238" width="264" height="16" rx="8" fill="#64748b"/>
  <rect x="640" y="142" width="206" height="128" rx="16" fill="#ffffff" stroke="#bfdbfe"/>
  <rect x="58" y="366" width="196" height="116" rx="16" fill="#ffffff" stroke="#e2e8f0"/>
  <rect x="286" y="366" width="196" height="116" rx="16" fill="#ffffff" stroke="#e2e8f0"/>
  <rect x="514" y="366" width="196" height="116" rx="16" fill="#ffffff" stroke="#e2e8f0"/>
  <rect x="742" y="366" width="196" height="116" rx="16" fill="#ffffff" stroke="#e2e8f0"/>
  <rect x="88" y="402" width="90" height="13" rx="7" fill="#2563eb"/>
  <rect x="316" y="402" width="90" height="13" rx="7" fill="#2563eb"/>
  <rect x="544" y="402" width="90" height="13" rx="7" fill="#2563eb"/>
  <rect x="772" y="402" width="90" height="13" rx="7" fill="#2563eb"/>
  <rect x="88" y="438" width="126" height="9" rx="5" fill="#94a3b8"/>
  <rect x="316" y="438" width="126" height="9" rx="5" fill="#94a3b8"/>
  <rect x="544" y="438" width="126" height="9" rx="5" fill="#94a3b8"/>
  <rect x="772" y="438" width="126" height="9" rx="5" fill="#94a3b8"/>
</svg>
